/vscmnt/brussel_pixiu_data/_data_brussel/112/vsc11236/PredSimResults/SUBJ06opt3D/expIG/worker_15.mot
version=1
nRows=4
nColumns=50
inDegrees=yes
endheader
                time	         pelvis_tilt	         pelvis_list	     pelvis_rotation	           pelvis_tx	           pelvis_ty	           pelvis_tz	       hip_flexion_r	     hip_adduction_r	      hip_rotation_r	        knee_angle_r	       ankle_angle_r	         mtp_angle_r	       hip_flexion_l	     hip_adduction_l	      hip_rotation_l	        knee_angle_l	       ankle_angle_l	         mtp_angle_l	    lumbar_extension	      lumbar_bending	     lumbar_rotation	 ercspn_r/activation	 intobl_r/activation	 extobl_r/activation	    abd_r/activation	    add_r/activation	hamstrings_r/activation	bifemsh_r/activation	glut_max_r/activation	iliopsoas_r/activation	rect_fem_r/activation	  vasti_r/activation	gastroc_r/activation	 soleus_r/activation	tib_ant_r/activation	 ercspn_l/activation	 intobl_l/activation	 extobl_l/activation	    abd_l/activation	    add_l/activation	hamstrings_l/activation	bifemsh_l/activation	glut_max_l/activation	iliopsoas_l/activation	rect_fem_l/activation	  vasti_l/activation	gastroc_l/activation	 soleus_l/activation	tib_ant_l/activation	
          0.77110395	        -10.59726312	         -2.06091449	          4.94423129	          1.54220789	          0.93709817	         -0.00065947	         36.76269680	          1.82135785	         -2.34528020	        -24.52910069	          4.86528757	          0.41966479	        -12.59274087	         -1.28554754	         -3.71385255	        -15.51313021	        -19.38428535	         42.74139545	         -6.44710474	          3.49692847	        -14.21037797	          0.27345970	          0.02352363	          0.00999999	          0.06045856	          0.33263009	          0.45772259	          0.44015948	          0.00999999	          0.20723160	          0.01128516	          0.00999999	          0.01128516	          0.00999999	          0.81406948	          0.20265213	          0.01140549	          0.00999999	          0.00999999	          0.37254628	          0.04764758	          0.23429050	          0.02510222	          0.93832153	          0.03573965	          0.00999999	          0.18459595	          0.10370876	          0.00999999	
          0.77881499	        -10.51030573	         -2.01104663	          4.80275089	          1.55977456	          0.93289585	          0.00030318	         36.65073833	          2.15895412	         -1.96497392	        -26.04100079	          4.66704345	          0.41475157	        -12.18337306	         -1.43948699	         -4.11971337	        -18.19657927	        -19.90055523	         42.27095701	         -6.23553614	          3.52067714	        -14.28049543	          0.24231768	          0.02084473	          0.01000000	          0.05357345	          0.47162854	          0.40559642	          0.39003343	          0.07273403	          0.18363174	          0.00999999	          0.00999999	          0.00999999	          0.00999999	          0.72136197	          0.21499475	          0.01010662	          0.00999999	          0.01094666	          0.33640170	          0.04222140	          0.20760913	          0.02224354	          0.88277295	          0.03166956	          0.00999999	          0.16357387	          0.09189824	          0.00999999	
          0.78652602	        -10.41412884	         -1.99254943	          4.64090816	          1.57740179	          0.92839729	          0.00125189	         36.58500240	          2.47660154	         -1.57077906	        -28.17676316	          5.26140235	          0.48192341	        -11.56990228	         -1.65363509	         -4.54576529	        -21.24037162	        -20.47209968	         41.52420077	         -6.01423181	          3.58513276	        -14.28141588	          0.21472217	          0.01847090	          0.00999999	          0.19789088	          0.45469028	          0.35940646	          0.34561581	          0.06445096	          0.16271947	          0.00999999	          0.19008737	          0.01621931	          0.14338894	          0.63921214	          0.24022896	          0.01128516	          0.00999999	          0.01128516	          0.35434037	          0.03741316	          0.18396628	          0.01971041	          0.78224138	          0.02806298	          0.00999999	          0.14494582	          0.08143273	          0.00999999	
          0.79423706	        -10.31283175	         -2.00331434	          4.45203783	          1.59497617	          0.92385244	          0.00217315	         36.46520757	          2.76078123	         -1.35800981	        -30.46298164	          7.19353731	          1.11691570	        -10.75035405	         -1.92571875	         -4.99299055	        -24.57789591	        -21.21626131	         40.41745163	         -5.79837311	          3.68895590	        -14.20963668	          0.19026927	          0.01636740	          0.00999999	          0.31851334	          0.40290943	          0.31847669	          0.30625654	          0.21801248	          0.14418872	          0.00999999	          0.34490054	          0.01437223	          0.14213041	          0.56641765	          0.29266046	          0.00999999	          0.00999999	          0.00999999	          0.31398753	          0.03315249	          0.16456312	          0.01746576	          0.69315851	          0.02486713	          0.00999999	          0.12843916	          0.07215904	          0.01836243	
